<?xml version="1.0" encoding="utf-8"?>
<!-- Generator: Adobe Illustrator 19.0.0, SVG Export Plug-In . SVG Version: 6.00 Build 0)  -->

<svg version="1.1" id="Layer_1" xmlns="http://www.w3.org/2000/svg" xmlns:xlink="http://www.w3.org/1999/xlink" x="0px" y="0px"
	 viewBox="0 0 58 57.3" style="enable-background:new 0 0 58 57.3;" xml:space="preserve">
<style type="text/css">
	.st0{fill:#B58E12;}

</style>
<path id="XMLID_756_" class="st0"  d="M23.9,54.2c-1.9,2.8-3.4,3.1-6.9,1.4C19.2,54.4,21.2,52.5,23.9,54.2z M23.4,57
	c3.4,0.8,4.8,0,6.3-3.2C26.8,53.3,25.2,55.2,23.4,57z M10.9,42.4c-1-1.9-2-3.2-4.1-3.6c-2-0.3-3.9-1.1-6.3-1.8
	c0.5,1.2,0.7,2.9,1.6,3.5C4.7,42.3,7.8,42.5,10.9,42.4z M1.4,35.2c2,1.2,4.2,1.9,6.5,2.9c-0.2-2.6-1-4.1-2.9-4.9
	c-1.6-0.7-3.1-1.6-4.8-2.4C0.5,32.2-0.3,34.2,1.4,35.2z M14.6,45.8c-1.9-1.9-1.9-1.9-3.8-1.8c-0.7,0-1.4,0.1-2.1,0
	c-1.9-0.3-3.8-0.6-6.2-1c1.2,1.3,1.9,2.9,3,3.2C8.4,47,11.5,47.2,14.6,45.8z M47.6,51.3c4-2.4,4.8-4.2,3.8-8.4
	C48.3,45,48,48.2,47.6,51.3z M40.3,55.7c4.3-1.2,5.5-2.6,5.7-6.7C42.7,50.1,41.6,53,40.3,55.7z M39.6,1.2c-4-2-6.1-1.6-9.2,1.6
	C33.6,3.7,36.6,2.9,39.6,1.2z M56.8,37.1c1.8-3.8,1.5-5.8-1.9-9.5C53.9,31.1,55.3,34.1,56.8,37.1z M53.3,44.7
	c3.2-3.8,3.1-5.1,0.8-9.1C52.3,38.4,52.3,41.5,53.3,44.7z M52.6,11.9c-2.1-4.4-3.2-4.7-7.6-4.5C46.5,10.7,49.4,11.5,52.6,11.9z
	 M46.7,5.7c-2.9-3.3-4.8-3.7-8.8-1.7C40.5,6.2,43.6,5.8,46.7,5.7z M53.4,20c0.2,3.4,2,5.9,4.5,8.2C58.5,24,57,21.3,53.4,20z
	 M56.6,19.5c-0.9-3.9-3.4-6.4-6.5-6.5C51.3,16.1,53.1,18.7,56.6,19.5z M48.6,28.1c-0.6,3.2-0.1,4.6,2.7,7.6
	C52.7,32.5,51.9,30.1,48.6,28.1z M41.1,39c-2.7,2-1.2,4.6-0.9,7.2C43.2,43.8,43.3,42.3,41.1,39z M45.5,23.4c-1.2-4-2.5-4.7-6.2-3.9
	C39.8,23.1,43,22.3,45.5,23.4z M35.1,50.3c4-1.9,4.1-2.2,3.2-6.8C34.6,44.5,36.1,47.9,35.1,50.3z M42.3,17.9c-1.7-3.3-3.6-3.9-6.8-2
	C37.1,18.7,39.8,17.9,42.3,17.9z M26.5,8.8c-3.9-0.3-5,0.5-5.8,4C24.1,12.5,25,11.9,26.5,8.8z M20.3,9.1c-3.8,0.9-4.6,2-4.3,5.6
	C19,13.4,19.8,12.5,20.3,9.1z M11.8,18.4c2.6-2.1,3.1-3.2,2.5-6.6C11,13.8,10.5,15,11.8,18.4z M9.4,15.7c-2.7,2.8-2.8,4.2-0.6,7
	C10.7,20,10.9,18.8,9.4,15.7z M6.3,20.2c-2.3,2.3-2.2,3.6,0.4,6.7C8.3,24.5,8.3,23.4,6.3,20.2z M31,13.4c2.4,2.5,4.7,0.3,7.4-0.1
	C35.2,10.9,33.1,11,31,13.4z M42.9,34.3c-2.1,2.7,0.4,4.6,1.1,7C45.8,38.3,46.5,37.3,42.9,34.3z M26.2,12.3c2.8,1.3,4.5-0.6,6.6-1.9
	C29.4,8.6,28.4,8.5,26.2,12.3z M29.4,52.2c3.9-0.6,5.1-2.2,4.5-5.6C30.9,47.2,30.8,50.1,29.4,52.2z M30.3,8.3
	c2.5,1.8,4.7,0.3,7.1-0.7C34.1,5.5,32.8,5.7,30.3,8.3z M29.3,48.7c-3.1-0.4-4,2.2-6,4C27,53.2,28.7,52,29.3,48.7z M24.3,49.3
	c-2.6-1.1-4.1,1.1-6.2,2.2C21.3,52.9,23,52.2,24.3,49.3z M18.1,52.8c-2.1-2.3-4.4-0.9-6.8-0.3C14.3,55.1,16,55.2,18.1,52.8z
	 M12.6,48.4c2.1,2.4,3.8,2.3,6.8-0.3C17,47.5,14.7,46.1,12.6,48.4z M48.5,34.8c-1.7,2.7-0.3,4.9,0.8,7.3
	C51.2,39.1,51.1,38,48.5,34.8z M46.5,29.8c-0.2-4.3-0.9-5.2-4.7-5.6C41.5,27.5,44.7,27.8,46.5,29.8z M35.5,10.3
	c3.3,1.8,1.9,1.7,7.1,1.1C40.4,8.6,38.2,8.3,35.5,10.3z M40.3,13.1c1.4,2.7,4,2.7,6.5,3C45.1,12.5,43.9,12,40.3,13.1z M47,22.4
	c-0.1,3.2,2.7,4,4.6,5.6C51.4,24.5,50.1,22.9,47,22.4z M46.7,40.2c-1.7,2.2-1.3,4.6-0.8,7.1C48.4,44.4,48.7,44.8,46.7,40.2z
	 M41.2,51.6c3.2-2,3.4-1.6,3-6.5C41.8,46.7,41.5,49.1,41.2,51.6z M42.9,29.6c-1,2.9,2.2,3.5,3,5.9C46.8,31.8,45.7,29.9,42.9,29.6z
	 M49.9,21.5c-0.6-3-2-4-5.7-4.1C45.5,19.7,47.3,21.2,49.9,21.5z M31,5.6c-3.3-1.1-4.8-0.5-6.4,2.3C27.3,8.9,29,7.2,31,5.6z
	 M25.5,5.2c-3.4-0.7-4.8,0-6.1,3C22.1,8.9,23.7,7,25.5,5.2z M18.9,6c-3.5,0.1-4.7,1.1-5.3,4.3C16.4,10.4,17.5,8.2,18.9,6z M12.9,8.6
	c-3.3,1.1-4.1,2.5-3.7,5.7C11.8,13.5,12.2,11.1,12.9,8.6z M7.5,12.6c-2.7,2.2-3.1,3.7-1.6,6.6C8.2,17.6,7.7,15.1,7.5,12.6z
	 M3.6,18.1c-2.1,2.8-2.1,4.3,0,6.8C5.5,22.7,4.5,20.5,3.6,18.1z M2.2,30.4c1.4-2.5,0.1-4.5-1.2-6.7C-0.6,26.8-0.3,28.3,2.2,30.4z
	 M6.4,32c0.1,0.1,0.2,0.2,0.4,0.3c0.6-1.6,0.1-2.8-0.6-3.7c-0.6-1-1.4-1.9-2.2-2.8c0,0,0,0,0,0.1c0,0,0,0,0-0.1c0,0.1,0,0.2,0,0.3
	C3.1,29.2,3.8,30.6,6.4,32z M37.1,51.5c-0.5,0.6-0.8,1.5-1,2.3c0,0.1-0.1,0.3-0.1,0.4c-0.3,1.4-0.3,2.6-0.3,2.6
	c0.5-0.1,1-0.3,1.4-0.5c2.5-1.2,2.1-4.4,2.7-6.9C38.8,49.9,37.8,50.6,37.1,51.5z M29.8,56.9c3.5,0,4.7-1,5.4-4.5
	C32.4,52.5,31.2,54.7,29.8,56.9z M12.9,50.6c0.4-0.2,0.6-0.4,0.6-0.4L13,49.7c-0.1-0.1-0.3-0.3-0.4-0.4c-1.7-1.5-3.8-1.1-5.9-1.1
	C7.8,50.6,11,51.7,12.9,50.6C12.9,50.6,12.9,50.6,12.9,50.6z"/>
</svg>

