<?xml version="1.0" encoding="utf-8"?>
<!-- Generator: Adobe Illustrator 19.0.0, SVG Export Plug-In . SVG Version: 6.00 Build 0)  -->
<svg version="1.1" id="Layer_1" xmlns="http://www.w3.org/2000/svg" xmlns:xlink="http://www.w3.org/1999/xlink" x="0px" y="0px"
	 viewBox="0 0 417.5 81.1" style="enable-background:new 0 0 417.5 81.1;" xml:space="preserve">
<style type="text/css">
	.st0{fill:#B58E12;}
	.st1{fill:#333333;}
</style>
<g id="XMLID_954_">
	<path id="XMLID_1173_" class="st0" d="M1,52.7c3.3,0.9,6,2,8.8,2.5c2.9,0.5,4.4,2.3,5.7,5c-4.5,0.2-8.7-0.2-12.3-2.6
		C2,56.7,1.8,54.4,1,52.7z"/>
	<path id="XMLID_1172_" class="st0" d="M11.4,54c-3.3-1.4-6.4-2.5-9.2-4.1c-2.4-1.4-1.4-4.2-1.6-6.2c2.3,1.2,4.4,2.4,6.7,3.4
		C10,48.3,11.2,50.4,11.4,54z"/>
	<path id="XMLID_1171_" class="st0" d="M20.7,64.9c-4.3,2-8.6,1.8-12.7,0.6C6.5,65,5.4,62.8,3.7,61c3.4,0.6,6.1,1,8.7,1.4
		c1,0.1,1.9,0,2.9,0C18.1,62.3,18.1,62.3,20.7,64.9z"/>
	<path id="XMLID_1170_" class="st0" d="M72.6,60.9c1.4,5.9,0.3,8.4-5.4,11.8C67.9,68.3,68.3,63.7,72.6,60.9z"/>
	<path id="XMLID_1169_" class="st0" d="M65,69.5c-0.3,5.8-2,7.8-8,9.4C58.8,75,60.3,71,65,69.5z"/>
	<path id="XMLID_1168_" class="st0" d="M55.9,2.1C51.8,4.5,47.6,5.6,43,4.3C47.3-0.2,50.3-0.7,55.9,2.1z"/>
	<path id="XMLID_1167_" class="st0" d="M77.6,39.3c4.7,5.3,5.3,8.1,2.7,13.4C78.1,48.5,76.2,44.3,77.6,39.3z"/>
	<path id="XMLID_1166_" class="st0" d="M75.3,63.4c-1.3-4.6-1.3-8.9,1.2-12.8C79.6,56.2,79.8,58,75.3,63.4z"/>
	<path id="XMLID_1165_" class="st0" d="M63.5,10.9c6.2-0.4,7.8,0.1,10.8,6.3C69.8,16.5,65.7,15.4,63.5,10.9z"/>
	<path id="XMLID_1164_" class="st0" d="M53.7,5.9c5.7-2.7,8.3-2.2,12.4,2.5C61.7,8.6,57.3,9.1,53.7,5.9z"/>
	<path id="XMLID_1163_" class="st0" d="M81.8,40.2c-3.5-3.3-6.1-6.8-6.4-11.5C80.5,30.5,82.6,34.2,81.8,40.2z"/>
	<path id="XMLID_1162_" class="st0" d="M79.9,27.9c-4.9-1.2-7.5-4.8-9.2-9.1C75.1,18.9,78.6,22.5,79.9,27.9z"/>
	<path id="XMLID_1161_" class="st0" d="M72.5,50.7c-3.9-4.2-4.6-6.1-3.7-10.7C73.3,42.9,74.5,46.1,72.5,50.7z"/>
	<path id="XMLID_1160_" class="st0" d="M56.7,65.5c-0.3-3.7-2.4-7.3,1.3-10.2C61.3,59.9,61,62.1,56.7,65.5z"/>
	<path id="XMLID_1159_" class="st0" d="M64.3,33.3c-3.5-1.4-8-0.4-8.8-5.5C60.8,26.7,62.6,27.7,64.3,33.3z"/>
	<path id="XMLID_1158_" class="st0" d="M54.2,61.7c1.4,6.5,1.2,6.8-4.5,9.5C51.1,67.8,49,63.1,54.2,61.7z"/>
	<path id="XMLID_1157_" class="st0" d="M59.9,25.7c-3.6,0-7.4,1.1-9.6-2.9C54.8,20.2,57.5,21,59.9,25.7z"/>
	<path id="XMLID_1156_" class="st0" d="M37.6,12.7c-2.1,4.4-3.5,5.3-8.2,5.6C30.6,13.4,32.1,12.3,37.6,12.7z"/>
	<path id="XMLID_1155_" class="st0" d="M28.8,13.2c-0.7,4.8-1.7,6.1-6.1,7.8C22.3,16,23.4,14.5,28.8,13.2z"/>
	<path id="XMLID_1154_" class="st0" d="M20.4,17c0.7,4.8,0.1,6.3-3.6,9.2C15,21.5,15.7,19.8,20.4,17z"/>
	<path id="XMLID_1153_" class="st0" d="M13.5,22.5c2,4.4,1.9,6.1-0.8,9.9C9.5,28.3,9.7,26.5,13.5,22.5z"/>
	<path id="XMLID_1152_" class="st0" d="M9.1,28.8c2.7,4.5,2.8,6.1,0.6,9.4C6,33.9,5.9,32.1,9.1,28.8z"/>
	<path id="XMLID_1151_" class="st0" d="M54.4,19.1c-3.8,0.5-7.1,3.6-10.5,0.1C46.9,15.9,49.8,15.7,54.4,19.1z"/>
	<path id="XMLID_1150_" class="st0" d="M60.7,48.8c5.1,4.2,4.1,5.6,1.6,9.8C61.2,55.3,57.7,52.6,60.7,48.8z"/>
	<path id="XMLID_1149_" class="st0" d="M37.1,17.7c3.1-5.3,4.6-5.2,9.3-2.6C43.5,16.8,41,19.5,37.1,17.7z"/>
	<path id="XMLID_1148_" class="st0" d="M41.7,74c2-3,2.2-7,6.3-7.9C48.8,70.8,47.1,73.1,41.7,74z"/>
	<path id="XMLID_1147_" class="st0" d="M52.9,11c-3.3,1.4-6.4,3.5-9.9,1C46.4,8.4,48.2,8.1,52.9,11z"/>
	<path id="XMLID_1146_" class="st0" d="M33,74.5c2.7-2.4,4.1-6.2,8.4-5.6C40.6,73.7,38.3,75.4,33,74.5z"/>
	<path id="XMLID_1145_" class="st0" d="M25.7,72.9c3-1.5,5.1-4.6,8.8-3.1C32.7,73.9,30.2,74.9,25.7,72.9z"/>
	<path id="XMLID_1144_" class="st0" d="M24.1,78.8c3.2-1.7,6-4.3,9.8-2C31.2,80.7,29,81.2,24.1,78.8z"/>
	<path id="XMLID_1143_" class="st0" d="M16.2,74.3c3.4-0.7,6.6-2.7,9.5,0.5C22.8,78.1,20.3,78,16.2,74.3z"/>
	<path id="XMLID_1142_" class="st0" d="M27.5,68.1c-3.4-0.7-6.6-2.7-9.5,0.5C20.9,71.9,23.3,71.8,27.5,68.1z"/>
	<path id="XMLID_1141_" class="st0" d="M68.5,49.4c3.7,4.6,3.9,6.1,1.1,10.2C68.1,56.3,66.1,53.2,68.5,49.4z"/>
	<path id="XMLID_1140_" class="st0" d="M65.7,42.4c-2.5-2.9-7-3.3-6.6-8C64.5,35.2,65.5,36.3,65.7,42.4z"/>
	<path id="XMLID_1139_" class="st0" d="M60.2,16.4c-7.4,0.9-5.3,1-10-1.5C54,12,57.1,12.5,60.2,16.4z"/>
	<path id="XMLID_1138_" class="st0" d="M57,18.8c5.1-1.5,6.8-0.7,9.2,4.2C62.7,22.7,59,22.6,57,18.8z"/>
	<path id="XMLID_1137_" class="st0" d="M73,39.9c-2.7-2.3-6.7-3.4-6.5-8C70.8,32.7,72.7,35,73,39.9z"/>
	<path id="XMLID_1136_" class="st0" d="M42.1,76.3c-2.1,4.5-4.1,5.5-8.8,4.5C35.7,78.1,38,75.5,42.1,76.3z"/>
	<path id="XMLID_1135_" class="st0" d="M66.1,57c2.8,6.4,2.4,6-1.1,10C64.2,63.5,63.7,60.2,66.1,57z"/>
	<path id="XMLID_1134_" class="st0" d="M62.4,64c0.7,7,0.4,6.4-4.2,9.2C58.6,69.5,59.2,66.2,62.4,64z"/>
	<path id="XMLID_1133_" class="st0" d="M65,50.5c-1.2-3.4-5.6-4.3-4.3-8.4C64.7,42.6,66.2,45.1,65,50.5z"/>
	<path id="XMLID_1132_" class="st0" d="M62.6,24.9c5.1,0.2,7.1,1.6,8,5.8C66.8,30.2,64.4,28.2,62.6,24.9z"/>
	<path id="XMLID_1114_" class="st0" d="M43.9,8.3c-2.8,2.3-5.3,4.7-9,3.3C37.2,7.6,39.2,6.8,43.9,8.3z"/>
	<path id="XMLID_1110_" class="st0" d="M36.1,7.7c-2.5,2.5-4.7,5.2-8.6,4.2C29.3,7.7,31.3,6.7,36.1,7.7z"/>
	<path id="XMLID_1108_" class="st0" d="M26.8,8.9c-1.9,3-3.5,6.1-7.5,6C20.2,10.4,21.9,9,26.8,8.9z"/>
	<path id="XMLID_1107_" class="st0" d="M18.3,12.6c-0.9,3.5-1.4,6.9-5.3,8C12.5,16,13.7,14.2,18.3,12.6z"/>
	<path id="XMLID_1106_" class="st0" d="M10.7,18.2c0.4,3.6,1,7-2.2,9.3C6.4,23.4,6.9,21.3,10.7,18.2z"/>
	<path id="XMLID_1105_" class="st0" d="M5.3,25.9c1.2,3.4,2.6,6.5,0,9.6C2.4,32,2.3,29.8,5.3,25.9z"/>
	<path id="XMLID_1103_" class="st0" d="M1.6,33.7c1.7,3.1,3.7,6,1.7,9.5C-0.2,40.2-0.7,38.1,1.6,33.7z"/>
	<path id="XMLID_1101_" class="st0" d="M9,40.7c-0.8-1.4-2-2.6-3.1-3.9c0,0,0,0,0,0.1c0,0,0-0.1-0.1-0.1c-0.1,0.1-0.1,0.2,0,0.5
		c-1.1,4.4-0.2,6.3,3.6,8.3c0.1,0.2,0.3,0.3,0.5,0.4C10.6,43.7,10,42.1,9,40.7z"/>
	<path id="XMLID_1099_" class="st0" d="M51.2,76.3c0-0.1,0-0.1,0-0.2c0,0.2-0.1,0.4-0.1,0.6C51.1,76.6,51.1,76.5,51.2,76.3z"/>
	<path id="XMLID_1097_" class="st0" d="M52.5,73L52.5,73c-0.7,0.9-1.1,2.1-1.3,3.2c0,0,0,0.1,0,0.2c0,0.2-0.1,0.3-0.1,0.5
		c-0.4,1.9-0.4,3.6-0.4,3.6c0.7-0.2,1.4-0.4,2-0.7c3.6-1.7,3-6.2,3.9-9.7C54.9,70.7,53.5,71.7,52.5,73z"/>
	<path id="XMLID_1096_" class="st0" d="M49.9,74.3c-1.1,4.9-2.8,6.3-7.7,6.3C44.1,77.4,45.8,74.4,49.9,74.3z"/>
	<path id="XMLID_959_" class="st0" d="M57.8,77.2"/>
	<path id="XMLID_958_" class="st0" d="M18.6,70.4c-0.2-0.2-0.4-0.4-0.6-0.6c-2.5-2.1-5.3-1.5-8.2-1.5c1.5,3.4,5.9,5,8.7,3.3
		c0,0,0,0,0,0c0.6-0.3,0.9-0.6,0.9-0.6L18.6,70.4z"/>
</g>
<g id="XMLID_1_">
	
		<image style="overflow:visible;opacity:0.1;" width="329" height="70" id="XMLID_409_" xlink:href="C286B482DF8D8716.png"  transform="matrix(1 0 0 1 101 12)">
	</image>
	<g id="XMLID_253_">
		<g id="XMLID_357_">
			<path id="XMLID_380_" class="st1" d="M121.1,31.1c2,0,3.9,0.3,5.5,1c1.6,0.7,3,1.6,4.2,2.9c1.2,1.3,2,2.8,2.7,4.5
				c0.6,1.8,0.9,3.8,0.9,6c0,2.2-0.3,4.2-0.9,6c-0.6,1.8-1.5,3.3-2.7,4.5c-1.2,1.3-2.6,2.2-4.2,2.9c-1.6,0.7-3.5,1-5.5,1
				c-2.1,0-3.9-0.3-5.6-1c-1.6-0.7-3.1-1.6-4.2-2.9c-1.2-1.3-2-2.8-2.7-4.5c-0.6-1.8-0.9-3.8-0.9-6c0-2.2,0.3-4.2,0.9-6
				c0.6-1.8,1.5-3.3,2.7-4.5c1.2-1.3,2.6-2.2,4.2-2.9S119.1,31.1,121.1,31.1z M121.1,56.1c2.8,0,4.8-0.9,6.2-2.8s2-4.4,2-7.8
				c0-3.3-0.7-5.9-2-7.8c-1.4-1.9-3.4-2.8-6.2-2.8c-1.4,0-2.6,0.2-3.7,0.7c-1,0.5-1.9,1.2-2.6,2.1c-0.7,0.9-1.2,2-1.5,3.3
				s-0.5,2.8-0.5,4.5c0,3.3,0.7,5.9,2.1,7.8S118.3,56.1,121.1,56.1z"/>
			<path id="XMLID_377_" class="st1" d="M147,35.9c1.2-1.5,2.5-2.6,4.1-3.5c1.5-0.9,3.3-1.3,5.3-1.3c1.6,0,3.1,0.3,4.4,0.9
				s2.4,1.5,3.3,2.7c0.9,1.2,1.6,2.7,2.1,4.5s0.7,3.8,0.7,6.2c0,2.1-0.3,4-0.8,5.8s-1.3,3.3-2.4,4.6s-2.3,2.3-3.8,3.1
				c-1.5,0.7-3.2,1.1-5.1,1.1c-1.7,0-3.2-0.3-4.4-0.9c-1.2-0.6-2.3-1.4-3.2-2.4V69h-4.9V31.5h3c0.7,0,1.1,0.3,1.3,1L147,35.9z
				 M147.3,52.8c0.9,1.2,1.9,2.1,3,2.6c1.1,0.5,2.3,0.7,3.6,0.7c2.6,0,4.6-0.9,6-2.8c1.4-1.9,2.1-4.5,2.1-8c0-1.8-0.2-3.4-0.5-4.7
				c-0.3-1.3-0.8-2.4-1.4-3.2c-0.6-0.8-1.4-1.5-2.2-1.8c-0.9-0.4-1.9-0.6-3-0.6c-1.6,0-3,0.4-4.2,1.1s-2.3,1.8-3.3,3.1V52.8z"/>
			<path id="XMLID_374_" class="st1" d="M197.7,55.6c-0.6,0.7-1.3,1.4-2.2,1.9c-0.8,0.5-1.8,1-2.7,1.3s-2,0.6-3,0.8
				s-2.1,0.3-3.1,0.3c-1.9,0-3.7-0.3-5.3-1c-1.6-0.7-3-1.6-4.2-2.9c-1.2-1.3-2.1-2.8-2.8-4.7c-0.7-1.9-1-4-1-6.4
				c0-2,0.3-3.8,0.9-5.5c0.6-1.7,1.5-3.2,2.6-4.4c1.1-1.2,2.5-2.2,4.1-2.9c1.6-0.7,3.4-1.1,5.5-1.1c1.7,0,3.2,0.3,4.7,0.8
				c1.4,0.6,2.7,1.4,3.7,2.4s1.9,2.4,2.4,3.9c0.6,1.6,0.9,3.3,0.9,5.3c0,0.8-0.1,1.3-0.2,1.5c-0.2,0.3-0.5,0.4-0.9,0.4h-18.7
				c0.1,1.8,0.3,3.3,0.7,4.6c0.4,1.3,1,2.4,1.8,3.3s1.7,1.5,2.8,2c1.1,0.4,2.3,0.6,3.6,0.6c1.2,0,2.3-0.1,3.2-0.4
				c0.9-0.3,1.7-0.6,2.3-0.9c0.6-0.3,1.2-0.6,1.6-0.9c0.4-0.3,0.8-0.4,1.1-0.4c0.4,0,0.7,0.2,0.9,0.5L197.7,55.6z M193.7,42.5
				c0-1.1-0.2-2.2-0.5-3.1s-0.8-1.8-1.4-2.5c-0.6-0.7-1.4-1.2-2.3-1.6c-0.9-0.4-1.9-0.6-3-0.6c-2.4,0-4.2,0.7-5.6,2.1
				c-1.4,1.4-2.2,3.3-2.6,5.7H193.7z"/>
			<path id="XMLID_372_" class="st1" d="M210.5,35.6c0.6-0.7,1.3-1.3,1.9-1.9c0.7-0.6,1.4-1,2.2-1.4c0.8-0.4,1.6-0.7,2.4-0.9
				c0.9-0.2,1.8-0.3,2.8-0.3c1.5,0,2.9,0.3,4,0.8c1.2,0.5,2.1,1.2,2.9,2.2s1.4,2,1.8,3.4c0.4,1.3,0.6,2.8,0.6,4.3v17.8h-4.9V41.7
				c0-2.1-0.5-3.8-1.5-4.9s-2.4-1.8-4.4-1.8c-1.5,0-2.8,0.3-4.1,1c-1.3,0.7-2.4,1.6-3.5,2.8v20.6h-4.9v-28h3c0.7,0,1.1,0.3,1.3,1
				L210.5,35.6z"/>
			<path id="XMLID_369_" class="st1" d="M244.6,34.7c1.1-1.2,2.4-2.2,3.8-2.9s3-1.1,4.8-1.1c1.6,0,3.1,0.3,4.4,1
				c1.3,0.6,2.4,1.6,3.4,2.8c0.9,1.2,1.6,2.7,2.1,4.4c0.5,1.7,0.7,3.6,0.7,5.8c0,2.3-0.3,4.4-0.9,6.3c-0.6,1.9-1.4,3.5-2.4,4.8
				s-2.3,2.4-3.8,3.1c-1.5,0.7-3.2,1.1-5,1.1c-0.9,0-1.7-0.1-2.4-0.3c-0.7-0.2-1.4-0.4-2-0.7c-0.6-0.3-1.2-0.7-1.7-1.1
				c-0.5-0.5-1-1-1.5-1.5l-0.3,1.9c-0.1,0.5-0.3,0.8-0.6,1c-0.3,0.2-0.6,0.3-1.1,0.3h-4.5V18.5h6.8V34.7z M244.6,52.2
				c0.8,0.9,1.6,1.6,2.5,2c0.9,0.4,1.9,0.6,2.9,0.6c1.1,0,2-0.2,2.8-0.6c0.8-0.4,1.6-1,2.1-1.8c0.6-0.8,1-1.8,1.4-3.1
				c0.3-1.2,0.5-2.7,0.5-4.5c0-3.1-0.5-5.4-1.5-6.8c-1-1.4-2.5-2.1-4.4-2.1c-1.3,0-2.5,0.3-3.4,0.9s-1.9,1.4-2.8,2.5V52.2z"/>
			<path id="XMLID_366_" class="st1" d="M283.4,30.7c2.1,0,4,0.3,5.7,1c1.7,0.7,3.2,1.6,4.4,2.9s2.2,2.8,2.8,4.6s1,3.8,1,6.1
				c0,2.2-0.3,4.3-1,6.1c-0.7,1.8-1.6,3.3-2.8,4.6c-1.2,1.3-2.7,2.2-4.4,2.9c-1.7,0.7-3.6,1-5.7,1c-2.1,0-4-0.3-5.8-1
				c-1.7-0.7-3.2-1.7-4.4-2.9c-1.2-1.3-2.2-2.8-2.8-4.6c-0.7-1.8-1-3.8-1-6.1c0-2.2,0.3-4.2,1-6.1c0.7-1.8,1.6-3.3,2.8-4.6
				c1.2-1.3,2.7-2.2,4.4-2.9C279.3,31.1,281.2,30.7,283.4,30.7z M283.4,54.7c2.4,0,4.1-0.8,5.2-2.4c1.1-1.6,1.7-3.9,1.7-7
				s-0.6-5.4-1.7-7c-1.1-1.6-2.9-2.4-5.2-2.4c-2.4,0-4.2,0.8-5.3,2.4c-1.2,1.6-1.7,3.9-1.7,7s0.6,5.4,1.7,7S281,54.7,283.4,54.7z"/>
			<path id="XMLID_364_" class="st1" d="M328.7,31.2v28.4h-4.2c-0.9,0-1.5-0.4-1.7-1.2l-0.5-2.3c-1.2,1.2-2.4,2.1-3.8,2.9
				s-3,1.1-4.9,1.1c-1.5,0-2.9-0.3-4.1-0.8c-1.2-0.5-2.2-1.3-3-2.2c-0.8-1-1.4-2.1-1.8-3.4s-0.6-2.8-0.6-4.4v-18h6.8v18
				c0,1.7,0.4,3.1,1.2,4c0.8,0.9,2,1.4,3.6,1.4c1.2,0,2.3-0.3,3.3-0.8c1-0.5,2-1.2,2.9-2.2V31.2H328.7z"/>
			<path id="XMLID_362_" class="st1" d="M343.4,34.7c0.6-0.6,1.2-1.1,1.8-1.6s1.3-0.9,2-1.2c0.7-0.3,1.5-0.6,2.3-0.8
				c0.8-0.2,1.7-0.3,2.7-0.3c1.5,0,2.9,0.3,4.1,0.8c1.2,0.5,2.2,1.3,3,2.2c0.8,0.9,1.4,2.1,1.8,3.4s0.6,2.8,0.6,4.4v18h-6.8v-18
				c0-1.7-0.4-3.1-1.2-4c-0.8-0.9-2-1.4-3.6-1.4c-1.2,0-2.3,0.3-3.3,0.8c-1,0.5-2,1.3-2.9,2.2v20.5h-6.8V31.2h4.2
				c0.9,0,1.5,0.4,1.7,1.2L343.4,34.7z"/>
			<path id="XMLID_360_" class="st1" d="M379,60c-2.5,0-4.4-0.7-5.7-2.1c-1.3-1.4-2-3.3-2-5.8V36.3h-2.9c-0.4,0-0.7-0.1-0.9-0.4
				c-0.3-0.2-0.4-0.6-0.4-1.1v-2.7l4.6-0.7l1.4-7.7c0.1-0.4,0.3-0.7,0.5-0.9c0.3-0.2,0.6-0.3,1-0.3h3.5v8.9h7.6v4.9h-7.6v15.4
				c0,0.9,0.2,1.6,0.6,2.1c0.4,0.5,1,0.7,1.8,0.7c0.4,0,0.8-0.1,1.1-0.2c0.3-0.1,0.5-0.2,0.7-0.3c0.2-0.1,0.4-0.2,0.6-0.3
				c0.2-0.1,0.3-0.2,0.5-0.2c0.2,0,0.4,0.1,0.5,0.2c0.1,0.1,0.3,0.3,0.4,0.5l2,3.3c-1,0.8-2.1,1.5-3.4,1.9
				C381.7,59.8,380.3,60,379,60z"/>
			<path id="XMLID_358_" class="st1" d="M417.5,31.2L402,67.3c-0.2,0.5-0.5,0.8-0.8,1.1c-0.3,0.2-0.8,0.4-1.5,0.4h-5.1l5.3-11.4
				l-11.5-26.2h6c0.5,0,1,0.1,1.3,0.4c0.3,0.3,0.5,0.6,0.7,0.9l6,14.7c0.2,0.5,0.4,1,0.5,1.5c0.1,0.5,0.3,1,0.4,1.5
				c0.2-0.5,0.3-1,0.5-1.5c0.2-0.5,0.4-1,0.6-1.5l5.7-14.7c0.1-0.4,0.4-0.7,0.7-0.9c0.3-0.2,0.7-0.4,1.1-0.4H417.5z"/>
		</g>
	</g>
</g>
</svg>
