<?xml version="1.0" encoding="utf-8"?>
<!-- Generator: Adobe Illustrator 19.0.0, SVG Export Plug-In . SVG Version: 6.00 Build 0)  -->
<svg version="1.1" id="Layer_1" xmlns="http://www.w3.org/2000/svg" xmlns:xlink="http://www.w3.org/1999/xlink" x="0px" y="0px"
	 viewBox="0 0 61.4 99" style="enable-background:new 0 0 61.4 99;" xml:space="preserve">
<style type="text/css">
	.st0{fill:#B58E12;}
</style>
<g id="XMLID_1297_">
	<path id="XMLID_1303_" class="st0" d="M29.4,99c-3.1-4.5-6.2-9-9.4-13.5c-6.4-9-12.8-18.1-19.2-27.1c-0.1-0.1-0.1-0.3-0.3-0.7
		c3.9,2.3,7.7,4.5,11.4,6.6c5.5,3.2,10.9,6.4,16.5,9.6c1,0.6,1.3,1.2,1.3,2.3c0,7.6,0,15.2,0,22.7C29.7,99,29.6,99,29.4,99z"/>
	<path id="XMLID_1302_" class="st0" d="M31.8,99c0-7.7,0-15.5,0-23.2c0-0.5,0.3-1.2,0.7-1.4c9.1-5.4,18.2-10.7,27.4-16
		c0.1-0.1,0.3-0.1,0.9-0.3c-0.7,1-1.1,1.8-1.6,2.5c-8.8,12.4-17.6,24.8-26.4,37.3c-0.3,0.4-0.4,0.9-0.6,1.3C32,99,31.9,99,31.8,99z"
		/>
	<path id="XMLID_1301_" class="st0" d="M32,0.8c9.5,15.8,19,31.7,28.8,47.9c-5.1-2.2-9.7-4.3-14.4-6.3c-4.5-2-9-3.9-13.5-6
		c-0.5-0.2-1.2-0.9-1.2-1.4c-0.1-11.4-0.1-22.7-0.1-34.1C31.8,0.9,31.9,0.8,32,0.8z"/>
	<path id="XMLID_1300_" class="st0" d="M29.7,0.9c0,11.3,0,22.6,0,33.9c0,0.5-0.5,1.3-1,1.5C21.1,39.7,13.5,43,6,46.3
		c-1.5,0.7-3,1.3-4.7,1.8C10.6,32.3,20,16.5,29.4,0.7C29.5,0.8,29.6,0.8,29.7,0.9z"/>
	<path id="XMLID_1299_" class="st0" d="M29.7,38.1c0,10.2,0,20.2,0,30.4C19.7,62.7,10,57,0,51.1C10,46.8,19.7,42.5,29.7,38.1z"/>
	<path id="XMLID_1298_" class="st0" d="M31.8,68.5c0-10.2,0-20.1,0-30.3c9.9,4.3,19.6,8.6,29.6,13C51.5,56.9,41.7,62.7,31.8,68.5z"
		/>
</g>
</svg>
