<?xml version="1.0" encoding="utf-8"?>
<!-- Generator: Adobe Illustrator 19.0.0, SVG Export Plug-In . SVG Version: 6.00 Build 0)  -->
<svg version="1.1" id="Layer_1" xmlns="http://www.w3.org/2000/svg" xmlns:xlink="http://www.w3.org/1999/xlink" x="0px" y="0px"
	 viewBox="0 0 54 56.3" style="enable-background:new 0 0 54 56.3;" xml:space="preserve">
<style type="text/css">
	.st0{fill:none;stroke:#D8D8D8;stroke-width:2;stroke-miterlimit:10;}
</style>
<path id="XMLID_2_" class="st0" d="M52.4,8.4l-6.6-6.6c-0.4-0.4-1-0.5-1.5-0.1c-2.5,1.8-6.6,4.3-7.9,4.5C32.1,6.5,27.7,4,27.6,4
	c-0.4-0.2-0.8-0.2-1.2,0c0,0-4.4,2.5-8.6,2.2C16.4,6,12.3,3.5,9.9,1.7C9.4,1.4,8.8,1.4,8.4,1.8L1.8,8.4C1.5,8.6,1.4,8.9,1.4,9.2
	s0.1,0.6,0.3,0.8c0.1,0.1,8,8.2,3.2,17.7c-1.5,3-1.6,6-0.5,9.2c3.9,10.4,21.3,17.8,22.1,18.1c0.1,0.1,0.3,0.1,0.5,0.1s0.3,0,0.4-0.1
	c0.7-0.3,18.2-7.7,22.1-18.1c1.2-3.1,1-6.2-0.5-9.2c-4.8-9.5,2.9-17.4,3.2-17.7C52.8,9.6,52.8,8.9,52.4,8.4z M41.1,24.9l-7.5,5.5
	l2.9,8.9c0.2,0.5,0,1-0.4,1.3c-0.2,0.1-0.4,0.2-0.7,0.2s-0.5-0.1-0.7-0.2l-7.5-5.5l-7.5,5.5c-0.4,0.3-1,0.3-1.4,0
	c-0.4-0.3-0.6-0.8-0.4-1.3l2.9-8.9l-7.5-5.5c-0.4-0.3-0.6-0.8-0.4-1.3c0.2-0.5,0.6-0.8,1.1-0.8h9.3l2.9-8.9c0.2-0.5,0.6-0.8,1.1-0.8
	c0.5,0,1,0.3,1.1,0.8l2.9,8.9h9.3c0.5,0,1,0.3,1.1,0.8S41.5,24.6,41.1,24.9z"/>
</svg>
