<?xml version="1.0" encoding="utf-8"?>
<!-- Generator: Adobe Illustrator 19.0.0, SVG Export Plug-In . SVG Version: 6.00 Build 0)  -->
<svg version="1.1" id="Layer_1" xmlns="http://www.w3.org/2000/svg" xmlns:xlink="http://www.w3.org/1999/xlink" x="0px" y="0px"
	 viewBox="0 0 64 70.4" style="enable-background:new 0 0 64 70.4;" xml:space="preserve">
<style type="text/css">
	.st0{fill:#D8D8D8;}
</style>
<g id="XMLID_4_">
	<g id="XMLID_82_">
		<path id="XMLID_104_" class="st0" d="M12.2,22.9c4.2,0,7.7-3.4,7.7-7.7s-3.4-7.7-7.7-7.7S4.6,11,4.6,15.3S8,22.9,12.2,22.9z
			 M12.2,10.2c2.8,0,5.1,2.3,5.1,5.1s-2.3,5.1-5.1,5.1s-5.1-2.3-5.1-5.1S9.4,10.2,12.2,10.2z"/>
		<path id="XMLID_101_" class="st0" d="M4.1,53.3v12.1c0,2.8,2.2,5,5,5h6.3c2.8,0,5-2.2,5-5V53.3c1.1-0.2,2.1-0.8,2.8-1.5V65
			c0,3,2.4,5.4,5.4,5.4h6.9c3,0,5.4-2.4,5.4-5.4V51.7c0.7,0.8,1.7,1.4,2.8,1.5v12.1c0,2.8,2.2,5,5,5h6.3c2.8,0,5-2.2,5-5V53.3
			c2.3-0.4,4.1-2.5,4.1-4.9V35.2c0-5.1-4.2-9.3-9.3-9.3h-5.9c-0.2,0-0.3,0-0.5,0c-0.7,0-1.3,0.6-1.3,1.3l0,0c0,0.7,0.6,1.3,1.4,1.3
			c0.1,0,0.2,0,0.4,0h5.9c3.7,0,6.7,3,6.7,6.7v13.2c0,1.3-1.1,2.4-2.4,2.4h-1.7v14.6c0,1.3-1.1,2.4-2.4,2.4h-6.3
			c-1.3,0-2.4-1.1-2.4-2.4V50.8h-1.7c-0.4,0-0.8-0.1-1.2-0.3c1.2-1,2.1-2.5,2.1-4.2v-1.2V31.7c0-3.5-1.8-6.6-4.6-8.4
			c-1.6-1-3.5-1.7-5.5-1.7h-6.6c-3.2,0-6.1,1.5-8,3.9c-1.3,1.7-2.1,3.9-2.1,6.2v14.5c0,1.3,0.5,2.5,1.3,3.4c0.2,0.3,0.5,0.5,0.8,0.8
			c-0.4,0.2-0.8,0.3-1.2,0.3h-1.7v14.6c0,1.3-1.1,2.4-2.4,2.4H9.1c-1.3,0-2.4-1.1-2.4-2.4V50.8H5c-1.3,0-2.4-1.1-2.4-2.4V35.2
			c0-3.7,3-6.7,6.7-6.7h5.9c0.2,0,0.4,0,0.6,0c0.8,0.1,1.4-0.5,1.4-1.3l0,0c0-0.7-0.5-1.2-1.1-1.3c-0.3,0-0.6,0-0.9,0H9.3
			c-5.1,0-9.3,4.2-9.3,9.3v13.2C0,50.8,1.8,52.9,4.1,53.3z M21.2,31.7c0-4.1,3.4-7.5,7.5-7.5h6.6c4.1,0,7.5,3.4,7.5,7.5v14.5
			c0,1.5-1.3,2.8-2.8,2.8h-1.7v16c0,1.5-1.3,2.8-2.8,2.8h-6.9c-1.5,0-2.8-1.3-2.8-2.8V49H24c-1.5,0-2.8-1.3-2.8-2.8L21.2,31.7
			L21.2,31.7z"/>
		<path id="XMLID_98_" class="st0" d="M51.8,22.9c4.2,0,7.7-3.4,7.7-7.7S56,7.6,51.8,7.6s-7.7,3.4-7.7,7.7S47.5,22.9,51.8,22.9z
			 M51.8,10.2c2.8,0,5.1,2.3,5.1,5.1s-2.3,5.1-5.1,5.1s-5.1-2.3-5.1-5.1S49,10.2,51.8,10.2z"/>
		<path id="XMLID_83_" class="st0" d="M32,19.5c5.4,0,9.7-4.4,9.7-9.7S37.4,0,32,0s-9.7,4.4-9.7,9.7C22.3,15.1,26.6,19.5,32,19.5z
			 M32,2.6c3.9,0,7.2,3.2,7.2,7.2S36,16.9,32,16.9s-7.2-3.2-7.2-7.2S28.1,2.6,32,2.6z"/>
	</g>
</g>
</svg>
